<svg width="21" height="24" viewBox="0 0 21 24" fill="none" xmlns="http://www.w3.org/2000/svg">
<path fill-rule="evenodd" clip-rule="evenodd" d="M15.6082 4.62138H19.6916C20.1381 4.62138 20.5 4.9726 20.5 5.40595V21.6464C20.5 23.0462 19.6086 24.0001 18.0749 24.0001H2.92506C1.5878 24.0001 0.5 22.9443 0.5 21.6464V5.40595C0.5 4.9726 0.861864 4.62138 1.30835 4.62138H5.39198C5.69024 2.02293 7.86713 -2.23023e-07 10.5 0C13.1382 2.23474e-07 15.311 2.01875 15.6082 4.62138ZM15.6429 6.19051V6.97632C16.1163 6.97632 16.5 7.3667 16.5 7.84836C16.5 8.33003 16.1163 8.72041 15.6429 8.72041H13.9286C13.4551 8.72041 13.0714 8.33003 13.0714 7.84836C13.0714 7.3667 13.4551 6.97632 13.9286 6.97632V6.19051H7.07143V6.97632C7.54487 6.97632 7.92857 7.3667 7.92857 7.84836C7.92857 8.33003 7.54487 8.7204 7.07143 8.7204H5.35714C4.8837 8.7204 4.5 8.33003 4.5 7.84836C4.5 7.3667 4.88371 6.97632 5.35714 6.97632V6.19051H2.11671V18.2728H18.8833V6.19051H15.6429ZM13.8762 4.62138C13.5923 2.98605 12.1889 1.74408 10.5 1.74408C8.81438 1.74408 7.4088 2.98831 7.12407 4.62138H13.8762ZM2.11671 21.6464V19.8419H18.8833V21.6464C18.8833 22.0791 18.5208 22.4309 18.0749 22.4309H2.92506C2.4792 22.4309 2.11671 22.0791 2.11671 21.6464Z" fill="#231F10"/>
</svg>
