<svg width="24" height="22" viewBox="0 0 24 22" fill="none" xmlns="http://www.w3.org/2000/svg">
<path d="M0.829029 13.044H2.78392V20.8635C2.78392 21.3243 3.16093 21.7013 3.62172 21.7013H9.34673C9.80752 21.7013 10.1845 21.3243 10.1845 20.8635V15.1385H13.6754V20.8635C13.6754 21.3243 14.0524 21.7013 14.5132 21.7013H19.9589C20.4197 21.7013 20.7967 21.3243 20.7967 20.8635V13.044H23.1705C23.5056 13.044 23.8128 12.8346 23.9384 12.5274C24.0641 12.2202 23.9943 11.8571 23.7569 11.6197L12.8376 0.546796C12.5164 0.225622 11.9858 0.211675 11.6646 0.532849L0.256563 11.6058C0.00522181 11.8432 -0.0646115 12.2062 0.0610589 12.5274C0.186729 12.8485 0.493907 13.044 0.829029 13.044ZM12.2231 2.32013L21.1597 11.3684H19.9588C19.498 11.3684 19.121 11.7454 19.121 12.2062V20.0257H15.3509V14.3007C15.3509 13.8399 14.9739 13.4629 14.5131 13.4629H9.34673C8.88593 13.4629 8.50892 13.8399 8.50892 14.3007V20.0257H4.45952V12.2062C4.45952 11.7454 4.08251 11.3684 3.62172 11.3684H2.89564L12.2231 2.32013Z" fill="#231F10"/>
</svg>
