<svg width="20" height="20" viewBox="0 0 20 20" fill="none" xmlns="http://www.w3.org/2000/svg">
<path fill-rule="evenodd" clip-rule="evenodd" d="M8.9839 0C6.58835 0 4.32794 0.933094 2.62746 2.63284C-0.875819 6.13459 -0.875819 11.8384 2.62746 15.3402C4.32777 17.0398 6.57941 17.973 8.9839 17.973C10.9876 17.973 12.8894 17.323 14.4528 16.1208L17.9886 19.6551C18.2244 19.8908 18.5295 20 18.8272 20C19.1203 20 19.4301 19.8936 19.6617 19.6505C20.1143 19.1931 20.1128 18.4428 19.6571 17.9873L16.1213 14.453C17.324 12.8903 17.9743 10.9894 17.9743 8.98652C17.9743 6.59201 17.0408 4.33258 15.3403 2.63284C13.64 0.93326 11.3884 0 8.9839 0ZM9 16C12.866 16 16 12.866 16 9C16 5.13401 12.866 2 9 2C5.13401 2 2 5.13401 2 9C2 12.866 5.13401 16 9 16Z" fill="#231F10"/>
</svg>
