<svg width="21" height="24" viewBox="0 0 21 24" fill="none" xmlns="http://www.w3.org/2000/svg">
<path fill-rule="evenodd" clip-rule="evenodd" d="M10.7259 0.224656C10.3718 -0.0766049 9.86504 -0.0725264 9.51532 0.222744L9.49399 0.24075L9.47398 0.26021C8.4389 1.26688 7.33753 2.00476 6.10169 2.52786C4.86322 3.0521 3.50304 3.35456 1.92926 3.44241C0.892546 3.50019 0.0681473 4.35391 0.0525872 5.39416C0.048713 5.66395 0.0414353 5.93368 0.0292841 6.20323C-0.0480721 9.49055 -0.0545943 12.8959 1.09809 16.0236C2.50119 19.8309 5.37776 22.4135 9.74564 23.9366L9.75005 23.9381C9.79959 23.9551 9.84887 23.9681 9.8964 23.9777L9.89884 23.9782C10.0442 24.0071 10.1931 24.0073 10.3384 23.9786L10.3404 23.9782C10.3951 23.9673 10.4441 23.9533 10.4859 23.9392L10.494 23.9364C14.8574 22.4104 17.7317 19.8264 19.1356 16.0199C20.3104 12.8346 20.2536 9.43692 20.1977 6.09223L20.1976 6.09141C20.1937 5.8587 20.1899 5.62624 20.1864 5.39413C20.1712 4.35349 19.3466 3.50013 18.3098 3.4424C16.7358 3.35455 15.3758 3.05211 14.1373 2.52787C12.9016 2.00476 11.8003 1.26687 10.7649 0.260162L10.746 0.24176L10.7259 0.224656ZM13.5186 3.98946C12.2765 3.46366 11.1581 2.75091 10.1195 1.82709C9.08109 2.75092 7.96258 3.46368 6.72035 3.98948C5.29137 4.59437 3.7484 4.9305 2.01771 5.0271C1.80878 5.03874 1.64273 5.21435 1.63958 5.41743C1.63526 5.71773 1.62743 5.9931 1.61562 6.25735L1.6155 6.2621C1.55785 9.28892 1.505 12.538 2.58733 15.4748C3.78201 18.7165 6.20049 20.9838 10.1193 22.3853C14.0335 20.9814 16.4507 18.7127 17.6465 15.4707C18.7308 12.5306 18.6808 9.28268 18.6235 6.2558C18.6117 5.99348 18.6039 5.71832 18.5994 5.41737C18.5964 5.21417 18.4304 5.03874 18.2215 5.0271C16.4906 4.93051 14.9476 4.59436 13.5186 3.98946ZM10.1184 5.67124C6.62869 5.67124 3.78974 8.51038 3.78974 11.9999C3.78974 15.4897 6.62869 18.3288 10.1184 18.3288C13.608 18.3288 16.4471 15.4897 16.4471 11.9999C16.4471 8.51038 13.608 5.67124 10.1184 5.67124ZM10.1184 16.8385C7.45037 16.8385 5.27984 14.668 5.27984 11.9999C5.27984 9.33186 7.45037 7.16133 10.1184 7.16133C12.7863 7.16133 14.9568 9.33186 14.9568 11.9999C14.9568 14.668 12.7863 16.8385 10.1184 16.8385ZM8.99806 12.9746L11.9376 10.0351C12.2286 9.74395 12.7003 9.74395 12.9913 10.0351C13.2822 10.326 13.2822 10.7977 12.9913 11.0887L9.52486 14.5552C9.37935 14.7007 9.18871 14.7734 8.99806 14.7734C8.80742 14.7734 8.61677 14.7007 8.47127 14.5552L7.14644 13.2304C6.85563 12.9396 6.85563 12.4678 7.14644 12.1768C7.43744 11.8858 7.90921 11.8858 8.20022 12.1768L8.99806 12.9746Z" fill="#DFB57B"/>
</svg>
