<svg width="20" height="20" viewBox="0 0 20 20" fill="none" xmlns="http://www.w3.org/2000/svg">
<path d="M7.55976 11.6732C7.93774 11.5731 8.22679 11.2396 8.26014 10.8394C8.2935 10.4391 8.09338 10.0611 7.72651 9.88327C6.27015 9.16065 5.36965 7.72652 5.36965 6.12563C5.36965 3.80211 7.25959 1.91217 9.5831 1.91217C11.9066 1.91217 13.7966 3.80211 13.7966 6.12563C13.7966 7.72652 12.8849 9.16065 11.4286 9.88327C11.0728 10.0611 10.8616 10.4391 10.8949 10.8394C10.9283 11.2396 11.2062 11.562 11.5953 11.6732C14.6081 12.4958 16.7871 15.0639 17.1762 18.0878H1.97888C2.35686 15.0528 4.54697 12.4847 7.55976 11.6732ZM3.44636 6.12563C3.44636 7.80434 4.12451 9.36076 5.29183 10.4947C2.10117 12.0845 0 15.3863 0 19.0439C0 19.5775 0.433574 20 0.956087 20H18.2101C18.7437 20 19.1662 19.5664 19.1662 19.0439C19.1662 15.3863 17.065 12.0845 13.8633 10.4947C15.0306 9.36076 15.7087 7.80434 15.7087 6.12563C15.7198 2.74597 12.9628 0 9.5831 0C6.20345 0 3.44636 2.74597 3.44636 6.12563Z" fill="#231F10"/>
</svg>
