<svg width="152" height="48" viewBox="0 0 152 48" fill="none" xmlns="http://www.w3.org/2000/svg">
<mask id="mask0" mask-type="alpha" maskUnits="userSpaceOnUse" x="0" y="0" width="152" height="48">
<path d="M0 0.0479736H151.789V48H0V0.0479736Z" fill="white"/>
</mask>
<g mask="url(#mask0)">
<path fill-rule="evenodd" clip-rule="evenodd" d="M140.356 0H11.4406C11.0002 0 10.5659 0 10.1267 0.0024C9.75958 0.0048 9.39482 0.012 9.02407 0.018C8.22497 0.0372 7.41747 0.0864 6.61957 0.2292C5.81687 0.3708 5.07057 0.6108 4.33866 0.9816C3.62115 1.35 2.96483 1.8276 2.3973 2.3964C1.82257 2.9652 1.34743 3.624 0.982677 4.3416C0.609524 5.0724 0.373153 5.8224 0.232771 6.6252C0.0887889 7.4208 0.0383952 8.2248 0.0179977 9.0276C0.0071991 9.396 0.00599925 9.7656 0 10.1328C0 10.5684 0 11.004 0 11.4432V36.558C0 37.0008 0 37.434 0 37.8708C0.00599925 38.2428 0.0071991 38.604 0.0179977 38.976C0.0383952 39.78 0.0887889 40.584 0.232771 41.3784C0.373153 42.1824 0.609524 42.936 0.982677 43.6644C1.34743 44.3784 1.82257 45.0372 2.3973 45.6012C2.96483 46.1748 3.62115 46.6512 4.33866 47.016C5.07057 47.3904 5.81687 47.628 6.61957 47.7732C7.41747 47.916 8.22497 47.9628 9.02407 47.9844C9.39482 47.9928 9.75958 47.9976 10.1267 47.9976C10.5659 48 11.0002 48 11.4406 48H140.356C140.787 48 141.226 48 141.657 47.9976C142.023 47.9976 142.397 47.9928 142.763 47.9844C143.567 47.9628 144.373 47.916 145.163 47.7732C145.967 47.628 146.714 47.3904 147.452 47.016C148.169 46.6512 148.826 46.1748 149.392 45.6012C149.964 45.0372 150.44 44.3784 150.81 43.6644C151.179 42.936 151.417 42.1824 151.553 41.3784C151.701 40.584 151.747 39.78 151.776 38.976C151.781 38.604 151.781 38.2428 151.781 37.8708C151.789 37.434 151.789 37.0008 151.789 36.558V11.4432C151.789 11.004 151.789 10.5684 151.781 10.1328C151.781 9.7656 151.781 9.396 151.776 9.0276C151.747 8.2248 151.701 7.4208 151.553 6.6252C151.417 5.8224 151.179 5.0724 150.81 4.3416C150.44 3.624 149.964 2.9652 149.392 2.3964C148.826 1.8276 148.169 1.35 147.452 0.9816C146.714 0.6108 145.967 0.3708 145.163 0.2292C144.373 0.0864 143.567 0.0372 142.763 0.018C142.397 0.012 142.023 0.0048 141.657 0.0024C141.226 0 140.787 0 140.356 0Z" fill="#A9AAA9"/>
</g>
<path fill-rule="evenodd" clip-rule="evenodd" d="M9.96062 47.1248C9.59448 47.1248 9.23795 47.12 8.87541 47.1115C8.20317 47.0934 7.40727 47.0547 6.63058 46.9144C5.89831 46.7814 5.24767 46.5637 4.64265 46.2518C4.01602 45.9325 3.45301 45.519 2.96563 45.0232C2.46864 44.5311 2.05929 43.9676 1.73997 43.3339C1.42906 42.7233 1.21658 42.0679 1.08813 41.3303C0.941676 40.5165 0.904462 39.6918 0.888856 39.063C0.880453 38.8079 0.87085 37.959 0.87085 37.959V10.0252C0.87085 10.0252 0.881654 9.1896 0.888856 8.94413C0.904462 8.31051 0.941676 7.48583 1.08693 6.6805C1.21538 5.93804 1.42786 5.28265 1.73997 4.6708C2.05809 4.03596 2.46744 3.46885 2.95842 2.98033C3.45421 2.47972 4.01962 2.06496 4.64145 1.74331C5.25848 1.42771 5.90792 1.21247 6.62578 1.0855C7.43488 0.940396 8.25359 0.902911 8.87782 0.887191L9.96062 0.872681H141.544L142.64 0.8884C143.256 0.902911 144.076 0.940396 144.871 1.08429C145.594 1.21247 146.248 1.42892 146.877 1.74694C147.492 2.06496 148.056 2.47972 148.547 2.97549C149.038 3.46643 149.45 4.03717 149.776 4.67321C150.085 5.29112 150.296 5.94651 150.419 6.6672C150.558 7.4302 150.601 8.21377 150.628 8.94897C150.63 9.29117 150.63 9.65998 150.63 10.0252C150.64 10.4786 150.64 10.9103 150.64 11.3456V36.6531C150.64 37.092 150.64 37.5213 150.63 37.953C150.63 38.346 150.63 38.7063 150.626 39.0775C150.601 39.7898 150.558 40.5721 150.421 41.3182C150.296 42.0594 150.085 42.7148 149.773 43.3376C149.449 43.9664 149.037 44.5335 148.553 45.0135C148.057 45.519 147.494 45.9313 146.874 46.2493C146.251 46.5686 145.616 46.7802 144.871 46.9144C144.102 47.0547 143.306 47.0934 142.627 47.1115C142.276 47.12 141.908 47.1248 141.55 47.1248L140.249 47.1272L9.96062 47.1248Z" fill="black"/>
<path fill-rule="evenodd" clip-rule="evenodd" d="M29.6452 24.2691C29.6157 20.9272 32.3016 19.3006 32.4243 19.2241C30.9038 16.9402 28.5447 16.628 27.7166 16.6037C25.7361 16.3887 23.8158 17.8246 22.806 17.8246C21.7775 17.8246 20.224 16.6244 18.5501 16.6608C16.3962 16.6948 14.3792 17.9801 13.2739 19.9748C10.9926 24.042 12.6936 30.02 14.8793 33.3073C15.9728 34.9181 17.2503 36.7172 18.9229 36.6528C20.559 36.5836 21.17 35.5777 23.1446 35.5777C25.1015 35.5777 25.6748 36.6528 27.3804 36.6127C29.1356 36.5836 30.2421 34.9946 31.2966 33.3692C32.5611 31.5239 33.0683 29.7054 33.0884 29.6131C33.0471 29.5985 29.6782 28.2756 29.6452 24.2691Z" fill="#FFFFFE"/>
<path fill-rule="evenodd" clip-rule="evenodd" d="M26.5123 14.7135C27.3979 13.5801 28.0034 12.0385 27.836 10.4727C26.5538 10.531 24.951 11.3801 24.0274 12.4892C23.2105 13.4659 22.4816 15.067 22.6692 16.5721C24.1093 16.6827 25.5886 15.8287 26.5123 14.7135Z" fill="#FFFFFE"/>
<path fill-rule="evenodd" clip-rule="evenodd" d="M42.5006 18.3272V11.5823H40.0544V10.4727H46.1497V11.5823H43.7087V18.3272H42.5006Z" fill="#FFFFFE"/>
<path fill-rule="evenodd" clip-rule="evenodd" d="M48.1218 11.4355L49.4493 9.59998H50.782L49.2959 11.4355H48.1218ZM47.3084 14.7749H50.2167C50.1911 13.863 49.6412 13.2697 48.7996 13.2697C47.9581 13.2697 47.371 13.8682 47.3084 14.7749ZM51.3064 16.6465C51.0467 17.6862 50.1272 18.3272 48.8099 18.3272C47.16 18.3272 46.1497 17.1857 46.1497 15.3283C46.1497 13.4722 47.1818 12.2945 48.806 12.2945C50.4073 12.2945 51.3741 13.3986 51.3741 15.2225V15.6224H47.3084V15.6869C47.3455 16.7046 47.9325 17.3508 48.8418 17.3508C49.5299 17.3508 50.0006 17.0993 50.2116 16.6465H51.3064Z" fill="#FFFFFE"/>
<path fill-rule="evenodd" clip-rule="evenodd" d="M53.1157 18.3272H53.8898V10.4727H53.1157V18.3272Z" fill="#FFFFFE"/>
<path fill-rule="evenodd" clip-rule="evenodd" d="M57.6999 11.4355L59.0275 9.59998H60.3601L58.874 11.4355H57.6999ZM56.8852 14.7749H59.7935C59.768 13.863 59.218 13.2697 58.3765 13.2697C57.5362 13.2697 56.9492 13.8682 56.8852 14.7749ZM60.8832 16.6465C60.6249 17.6862 59.704 18.3272 58.388 18.3272C56.7381 18.3272 55.7278 17.1857 55.7278 15.3283C55.7278 13.4722 56.7586 12.2945 58.3829 12.2945C59.9854 12.2945 60.9523 13.3986 60.9523 15.2225V15.6224H56.8852V15.6869C56.9223 16.7046 57.5093 17.3508 58.4187 17.3508C59.1068 17.3508 59.5787 17.0993 59.7897 16.6465H60.8832Z" fill="#FFFFFE"/>
<path fill-rule="evenodd" clip-rule="evenodd" d="M65.9283 14.2532C65.795 13.6811 65.3239 13.2553 64.5526 13.2553C63.5898 13.2553 63.0009 13.9998 63.0009 15.2537C63.0009 16.5286 63.5949 17.2901 64.5526 17.2901C65.2799 17.2901 65.7782 16.9544 65.9283 16.3222H67.0477C66.8963 17.5056 65.9982 18.3272 64.5591 18.3272C62.8611 18.3272 61.8232 17.1712 61.8232 15.2537C61.8232 13.3689 62.856 12.2181 64.5526 12.2181C66.0137 12.2181 66.8963 13.0763 67.0477 14.2532H65.9283Z" fill="#FFFFFE"/>
<path fill-rule="evenodd" clip-rule="evenodd" d="M67.0476 10.4727H68.2354V13.5851H68.3298C68.6251 12.9516 69.2668 12.574 70.181 12.574C71.4739 12.574 72.2721 13.3367 72.2721 14.6791V18.3272H71.0735V14.9551C71.0735 14.0518 70.6218 13.5952 69.7751 13.5952C68.7923 13.5952 68.2462 14.1722 68.2462 15.0278V18.3272H67.0476V10.4727Z" fill="#FFFFFE"/>
<path fill-rule="evenodd" clip-rule="evenodd" d="M77.3487 16.0586V15.5648L76.0811 15.6565C75.3666 15.7115 75.0428 15.9879 75.0428 16.5079C75.0428 17.0383 75.4484 17.3475 76.005 17.3475C76.7771 17.3475 77.3487 16.7895 77.3487 16.0586ZM74.0137 16.5616C74.0137 15.5006 74.7086 14.8876 75.9428 14.8011L77.3487 14.7095V14.1999C77.3487 13.5764 76.9868 13.2254 76.2862 13.2254C75.7146 13.2254 75.3182 13.4638 75.2052 13.8803H74.213C74.3179 12.8678 75.1568 12.2181 76.3334 12.2181C77.6345 12.2181 78.3674 12.9543 78.3674 14.1999V18.2303H77.3821V17.4012H77.3014C76.9915 17.9919 76.4245 18.3272 75.7423 18.3272C74.742 18.3272 74.0137 17.6396 74.0137 16.5616Z" fill="#FFFFFE"/>
<path fill-rule="evenodd" clip-rule="evenodd" d="M80.1089 12.3182H81.2841V13.239H81.3762C81.5521 12.6492 82.2394 12.2181 83.0476 12.2181C83.2276 12.2181 83.4613 12.2342 83.5919 12.2675V13.4378C83.4902 13.4045 83.1259 13.3658 82.9101 13.3658C81.9837 13.3658 81.3294 13.9342 81.3294 14.7789V18.3272H80.1089V12.3182Z" fill="#FFFFFE"/>
<path fill-rule="evenodd" clip-rule="evenodd" d="M87.7329 15.0492C87.7329 13.9305 87.1564 13.2134 86.2158 13.2134C85.2654 13.2134 84.7324 13.9305 84.7324 15.0492C84.7324 16.1691 85.2654 16.885 86.2158 16.885C87.1626 16.885 87.7329 16.1741 87.7329 15.0492ZM83.8117 18.4888H84.9423C85.0355 18.8966 85.5027 19.1598 86.2469 19.1598C87.1676 19.1598 87.7118 18.7208 87.7118 17.9787V16.9012H87.6297C87.2893 17.5098 86.6731 17.844 85.9028 17.844C84.4752 17.844 83.5918 16.7366 83.5918 15.0542C83.5918 13.3418 84.4839 12.2181 85.9139 12.2181C86.6842 12.2181 87.3564 12.5998 87.6707 13.2084H87.7577V12.3117H88.8163V17.9737C88.8163 19.2583 87.8136 20.0727 86.232 20.0727C84.8342 20.0727 83.9297 19.4441 83.8117 18.4888Z" fill="#FFFFFE"/>
<path fill-rule="evenodd" clip-rule="evenodd" d="M90.8445 14.73H93.7541C93.7272 13.8065 93.1785 13.2056 92.3357 13.2056C91.4954 13.2056 90.9084 13.8117 90.8445 14.73ZM94.8424 16.6253C94.5841 17.6781 93.6633 18.3272 92.3472 18.3272C90.6974 18.3272 89.687 17.1712 89.687 15.2903C89.687 13.4107 90.7191 12.2181 92.3421 12.2181C93.9446 12.2181 94.9115 13.3362 94.9115 15.1832V15.5881H90.8445V15.6534C90.8828 16.684 91.4699 17.3384 92.3792 17.3384C93.0673 17.3384 93.5379 17.0837 93.7489 16.6253H94.8424Z" fill="#FFFFFE"/>
<path fill-rule="evenodd" clip-rule="evenodd" d="M96.6531 12.3182H97.8283V13.239H97.919C98.0949 12.6492 98.7822 12.2181 99.5904 12.2181C99.7718 12.2181 100.006 12.2342 100.136 12.2675V13.4378C100.033 13.4045 99.6701 13.3658 99.4543 13.3658C98.5279 13.3658 97.8736 13.9342 97.8736 14.7789V18.3272H96.6531V12.3182Z" fill="#FFFFFE"/>
<path fill-rule="evenodd" clip-rule="evenodd" d="M104.76 15.4408C104.76 16.6249 105.319 17.3378 106.254 17.3378C107.185 17.3378 107.76 16.6149 107.76 15.4458C107.76 14.2828 107.179 13.5488 106.254 13.5488C105.325 13.5488 104.76 14.2666 104.76 15.4408ZM103.619 15.4408C103.619 13.6765 104.527 12.5593 105.941 12.5593C106.707 12.5593 107.354 12.9226 107.657 13.5388H107.739V10.4727H108.844V18.2355H107.785V17.3527H107.698C107.365 17.9627 106.712 18.3272 105.941 18.3272C104.517 18.3272 103.619 17.2101 103.619 15.4408Z" fill="#FFFFFE"/>
<path fill-rule="evenodd" clip-rule="evenodd" d="M113.92 16.0586V15.5648L112.653 15.6565C111.939 15.7115 111.615 15.9879 111.615 16.5079C111.615 17.0383 112.019 17.3475 112.577 17.3475C113.349 17.3475 113.92 16.7895 113.92 16.0586ZM110.585 16.5616C110.585 15.5006 111.281 14.8876 112.515 14.8011L113.92 14.7095V14.1999C113.92 13.5764 113.557 13.2254 112.858 13.2254C112.287 13.2254 111.89 13.4638 111.776 13.8803H110.785C110.89 12.8678 111.728 12.2181 112.905 12.2181C114.206 12.2181 114.939 12.9543 114.939 14.1999V18.2303H113.954V17.4012H113.873C113.563 17.9919 112.996 18.3272 112.314 18.3272C111.314 18.3272 110.585 17.6396 110.585 16.5616Z" fill="#FFFFFE"/>
<path fill-rule="evenodd" clip-rule="evenodd" d="M115.81 12.3339H116.783V13.2856H116.859C117.109 12.6201 117.618 12.2181 118.389 12.2181C119.533 12.2181 120.163 13.0207 120.163 14.4475V18.3272H119.152V14.7443C119.152 13.7807 118.794 13.3015 118.046 13.3015C117.298 13.3015 116.822 13.8858 116.822 14.8202V18.3272H115.81V12.3339Z" fill="#FFFFFE"/>
<path fill-rule="evenodd" clip-rule="evenodd" d="M124.092 12.2181C125.279 12.2181 126.055 12.8334 126.157 13.8705H125.158C125.062 13.4381 124.683 13.1625 124.092 13.1625C123.511 13.1625 123.069 13.4708 123.069 13.9293C123.069 14.2806 123.335 14.5027 123.907 14.649L124.785 14.8749C125.788 15.1349 126.259 15.6156 126.259 16.4803C126.259 17.5866 125.332 18.3272 124.072 18.3272C122.817 18.3272 121.999 17.695 121.905 16.6527H122.948C123.078 17.1059 123.466 17.3868 124.097 17.3868C124.745 17.3868 125.207 17.0628 125.207 16.5926C125.207 16.2412 124.96 16.0153 124.431 15.8742L123.511 15.6365C122.506 15.3713 122.042 14.8697 122.042 13.9946C122.042 12.9522 122.899 12.2181 124.092 12.2181Z" fill="#FFFFFE"/>
<path fill-rule="evenodd" clip-rule="evenodd" d="M41.7959 36.6545H44.4081V21.8181H41.7959V36.6545Z" fill="#FFFFFE"/>
<path fill-rule="evenodd" clip-rule="evenodd" d="M47.0205 27.0545L48.2732 21.8181H50.5035L48.9854 27.0545H47.0205Z" fill="#FFFFFE"/>
<path fill-rule="evenodd" clip-rule="evenodd" d="M53.9248 30.7942H58.3601L56.1744 24.2853H56.1129L53.9248 30.7942ZM58.9417 32.6449H53.3456L52.0015 36.6545H49.6326L54.932 21.8181H57.3944L62.6938 36.6545H60.2835L58.9417 32.6449Z" fill="#FFFFFE"/>
<path fill-rule="evenodd" clip-rule="evenodd" d="M71.6734 30.6243C71.6734 28.5157 70.5131 27.1303 68.7414 27.1303C67.0015 27.1303 65.8314 28.5456 65.8314 30.6243C65.8314 32.7215 67.0015 34.1265 68.7414 34.1265C70.5131 34.1265 71.6734 32.7514 71.6734 30.6243ZM74.0137 30.6243C74.0137 33.8586 72.1684 35.9373 69.3847 35.9373C67.8041 35.9373 66.5482 35.2739 65.8939 34.1161H65.8412V39.2727H63.5647V25.4183H65.7677V27.1498H65.8106C66.4428 26.0323 67.7931 25.3091 69.3418 25.3091C72.1574 25.3091 74.0137 27.3982 74.0137 30.6243Z" fill="#FFFFFE"/>
<path fill-rule="evenodd" clip-rule="evenodd" d="M83.8639 30.6243C83.8639 28.5157 82.7035 27.1303 80.9331 27.1303C79.1932 27.1303 78.0231 28.5456 78.0231 30.6243C78.0231 32.7215 79.1932 34.1265 80.9331 34.1265C82.7035 34.1265 83.8639 32.7514 83.8639 30.6243ZM86.2041 30.6243C86.2041 33.8586 84.3589 35.9373 81.5751 35.9373C79.9945 35.9373 78.7386 35.2739 78.0843 34.1161H78.0317V39.2727H75.7551V25.4183H77.9594V27.1498H78.001C78.6345 26.0323 79.9835 25.3091 81.5334 25.3091C84.3491 25.3091 86.2041 27.3982 86.2041 30.6243Z" fill="#FFFFFE"/>
<path fill-rule="evenodd" clip-rule="evenodd" d="M93.8622 31.542C94.0388 32.9664 95.5692 33.9007 97.6613 33.9007C99.6651 33.9007 101.107 32.9664 101.107 31.6831C101.107 30.5685 100.238 29.9002 98.1782 29.4435L96.1194 28.9949C93.202 28.3578 91.8469 27.1253 91.8469 25.1239C91.8469 22.6474 94.2358 20.9454 97.6293 20.9454C100.987 20.9454 103.288 22.6474 103.366 25.1239H100.965C100.822 23.6914 99.5102 22.8266 97.5947 22.8266C95.6792 22.8266 94.3689 23.7018 94.3689 24.9748C94.3689 25.9899 95.2058 26.5877 97.2544 27.0444L99.0048 27.4329C102.265 28.1301 103.619 29.314 103.619 31.4137C103.619 34.0995 101.252 35.7818 97.4847 35.7818C93.9607 35.7818 91.582 34.14 91.4285 31.542H93.8622Z" fill="#FFFFFE"/>
<path fill-rule="evenodd" clip-rule="evenodd" d="M108.446 22.6909V25.1839H110.585V26.897H108.446V32.707C108.446 33.6089 108.874 34.0291 109.813 34.0291C110.05 34.0291 110.425 33.9988 110.574 33.979V35.6817C110.318 35.7423 109.805 35.7818 109.292 35.7818C107.014 35.7818 106.126 34.9811 106.126 32.9374V26.897H104.49V25.1839H106.126V22.6909H108.446Z" fill="#FFFFFE"/>
<path fill-rule="evenodd" clip-rule="evenodd" d="M119.601 30.9818C119.601 28.5912 118.512 27.1812 116.68 27.1812C114.848 27.1812 113.758 28.6022 113.758 30.9818C113.758 33.381 114.848 34.7799 116.68 34.7799C118.512 34.7799 119.601 33.381 119.601 30.9818ZM111.456 30.9818C111.456 27.498 113.497 25.3091 116.68 25.3091C119.873 25.3091 121.905 27.498 121.905 30.9818C121.905 34.4742 119.884 36.6545 116.68 36.6545C113.477 36.6545 111.456 34.4742 111.456 30.9818Z" fill="#FFFFFE"/>
<path fill-rule="evenodd" clip-rule="evenodd" d="M123.646 25.4269H125.979V27.3378H126.036C126.409 26.068 127.498 25.3091 128.903 25.3091C129.254 25.3091 129.548 25.3537 129.741 25.3959V27.5511C129.548 27.4755 129.117 27.4123 128.642 27.4123C127.066 27.4123 126.092 28.4155 126.092 29.9953V36.6545H123.646V25.4269Z" fill="#FFFFFE"/>
<path fill-rule="evenodd" clip-rule="evenodd" d="M132.123 29.9607H137.841C137.786 28.2659 136.667 27.1507 135.036 27.1507C133.415 27.1507 132.243 28.2867 132.123 29.9607ZM140.059 33.2648C139.743 35.2752 137.721 36.6545 135.135 36.6545C131.807 36.6545 129.741 34.4962 129.741 31.0344C129.741 27.5615 131.818 25.3091 135.036 25.3091C138.199 25.3091 140.19 27.4136 140.19 30.7703V31.5492H132.111V31.6862C132.111 33.5803 133.341 34.8227 135.189 34.8227C136.493 34.8227 137.515 34.2223 137.829 33.2648H140.059Z" fill="#FFFFFE"/>
</svg>
