<svg width="36" height="36" viewBox="0 0 36 36" fill="none" xmlns="http://www.w3.org/2000/svg">
<circle cx="18" cy="18" r="18" transform="rotate(-180 18 18)" fill="#231F10"/>
<path fill-rule="evenodd" clip-rule="evenodd" d="M19.6673 23.9999C19.5772 24.0015 19.4902 23.9671 19.4254 23.9044L18.7941 23.2928C18.6594 23.1623 18.6558 22.9473 18.7862 22.8124L22.6897 18.7746L11.5894 18.7746C11.402 18.7746 11.25 18.6225 11.25 18.4349L11.25 17.5651C11.25 17.3775 11.402 17.2254 11.5894 17.2254L22.7432 17.2254L18.7878 13.1892C18.7245 13.1246 18.6895 13.0374 18.6907 12.9469C18.6919 12.8564 18.7291 12.7701 18.7941 12.7072L19.4254 12.0956C19.5596 11.9657 19.7734 11.9685 19.904 12.102L25.4033 17.7217C25.5322 17.8537 25.5322 18.0647 25.4033 18.1967L25.1061 18.5009L19.9058 23.8961C19.8432 23.9611 19.7574 23.9984 19.6673 23.9999Z" fill="white"/>
</svg>
