<svg width="258" height="50" viewBox="0 0 258 50" fill="none" xmlns="http://www.w3.org/2000/svg">
<path d="M0.5 3C0.5 1.61929 1.61929 0.5 3 0.5H255C256.381 0.5 257.5 1.61929 257.5 3V47C257.5 48.3807 256.381 49.5 255 49.5H3C1.61929 49.5 0.5 48.3807 0.5 47V3Z" stroke="#E4C291"/>
<path d="M56.65 31H58.105V26.035H61.93V24.67H58.105V21.715H64.735V20.35H56.65V31ZM70.147 31H71.512V23.59H70.147V24.82C69.937 24.445 69.397 23.425 67.942 23.425C66.172 23.425 64.807 24.865 64.807 27.31C64.807 29.755 66.172 31.18 67.942 31.18C69.382 31.18 69.952 30.22 70.147 29.785V31ZM70.177 27.31C70.177 28.795 69.457 29.935 68.197 29.935C66.907 29.935 66.217 28.795 66.217 27.31C66.217 25.825 66.907 24.685 68.197 24.685C69.457 24.685 70.177 25.825 70.177 27.31ZM78.9457 25.795H80.2807C80.1607 25.255 79.5307 23.395 77.1607 23.395C75.2257 23.395 73.7857 25.045 73.7857 27.295C73.7857 29.53 75.2407 31.18 77.1757 31.18C79.5307 31.18 80.2057 29.275 80.2807 28.795H78.9607C78.8407 29.065 78.4207 29.935 77.1757 29.935C75.9757 29.935 75.1957 28.78 75.1957 27.295C75.1957 25.795 75.9757 24.655 77.1607 24.655C78.3457 24.655 78.8257 25.495 78.9457 25.795ZM85.2906 23.395C83.2356 23.395 81.9156 25.03 81.9156 27.295C81.9156 29.47 83.2656 31.18 85.4256 31.18C87.7506 31.18 88.4406 29.62 88.6056 29.02H87.3006C87.1806 29.215 86.7456 29.935 85.4256 29.935C84.1056 29.935 83.3706 28.87 83.2956 27.49H88.6506V27.28C88.6506 24.925 87.3006 23.395 85.2906 23.395ZM85.2906 24.565C86.3556 24.565 86.9856 25.225 87.2106 26.41H83.3406C83.5356 25.27 84.1656 24.565 85.2906 24.565ZM92.2417 29.845C92.4067 30.175 93.0817 31.18 94.5517 31.18C96.2917 31.18 97.7467 29.74 97.7467 27.295C97.7467 24.835 96.2917 23.395 94.5517 23.395C93.0817 23.395 92.4067 24.43 92.2417 24.805V19.96H90.8917V31H92.2417V29.845ZM92.2117 27.295C92.2117 25.795 92.9767 24.655 94.2817 24.655C95.5567 24.655 96.3517 25.795 96.3517 27.295C96.3517 28.78 95.5567 29.935 94.2817 29.935C92.9767 29.935 92.2117 28.78 92.2117 27.295ZM103.062 23.41C100.962 23.41 99.5816 25.09 99.5816 27.295C99.5816 29.5 100.962 31.18 103.062 31.18C105.162 31.18 106.542 29.5 106.542 27.295C106.542 25.09 105.162 23.41 103.062 23.41ZM103.062 29.92C101.697 29.92 100.992 28.75 100.992 27.295C100.992 25.84 101.712 24.67 103.062 24.67C104.412 24.67 105.132 25.84 105.132 27.295C105.132 28.75 104.412 29.92 103.062 29.92ZM111.821 23.41C109.721 23.41 108.341 25.09 108.341 27.295C108.341 29.5 109.721 31.18 111.821 31.18C113.921 31.18 115.301 29.5 115.301 27.295C115.301 25.09 113.921 23.41 111.821 23.41ZM111.821 29.92C110.456 29.92 109.751 28.75 109.751 27.295C109.751 25.84 110.471 24.67 111.821 24.67C113.171 24.67 113.891 25.84 113.891 27.295C113.891 28.75 113.171 29.92 111.821 29.92ZM122.621 31H124.466L120.371 27.085L124.271 23.59H122.396L118.901 26.77V19.96H117.581V31H118.901V27.52L122.621 31Z" fill="white"/>
<path d="M26.0174 18.8734C26.0174 19.3774 26.0174 21.627 26.0174 21.627H24V24.9941H26.0174V35H30.1615V24.9944H32.9424C32.9424 24.9944 33.2028 23.3799 33.3291 21.6146C32.9671 21.6146 30.1772 21.6146 30.1772 21.6146C30.1772 21.6146 30.1772 19.6557 30.1772 19.3123C30.1772 18.9682 30.629 18.5054 31.0756 18.5054C31.5213 18.5054 32.4621 18.5054 33.3335 18.5054C33.3335 18.0469 33.3335 16.4629 33.3335 15C32.1702 15 30.8469 15 30.2635 15C25.9149 14.9998 26.0174 18.3702 26.0174 18.8734Z" fill="#E4C291"/>
</svg>
