<svg width="258" height="50" viewBox="0 0 258 50" fill="none" xmlns="http://www.w3.org/2000/svg">
<path d="M0.5 3C0.5 1.61929 1.61929 0.5 3 0.5H255C256.381 0.5 257.5 1.61929 257.5 3V47C257.5 48.3807 256.381 49.5 255 49.5H3C1.61929 49.5 0.5 48.3807 0.5 47V3Z" stroke="#E4C291"/>
<path fill-rule="evenodd" clip-rule="evenodd" d="M31.75 15H24.25C20.7987 15 18 17.7987 18 21.25V28.75C18 32.2013 20.7987 35 24.25 35H31.75C35.2013 35 38 32.2013 38 28.75V21.25C38 17.7987 35.2013 15 31.75 15ZM28 20C25.2387 20 23 22.2387 23 25C23 27.7613 25.2387 30 28 30C30.7613 30 33 27.7613 33 25C33 22.2387 30.7613 20 28 20ZM28 28.125C26.2775 28.125 24.875 26.7225 24.875 25C24.875 23.2762 26.2775 21.875 28 21.875C29.7225 21.875 31.125 23.2762 31.125 25C31.125 26.7225 29.7225 28.125 28 28.125ZM34.0414 19.625C34.0414 19.993 33.7431 20.2913 33.3751 20.2913C33.0072 20.2913 32.7089 19.993 32.7089 19.625C32.7089 19.2571 33.0072 18.9588 33.3751 18.9588C33.7431 18.9588 34.0414 19.2571 34.0414 19.625Z" fill="#E4C291"/>
<path d="M57.665 31H59.12V20.35H57.665V31ZM63.535 26.845C63.535 25.45 64.24 24.685 65.425 24.685C66.55 24.685 67.225 25.405 67.225 26.845V31H68.605V26.59C68.605 24.595 67.48 23.425 65.755 23.425C64.51 23.425 63.82 24.22 63.535 24.835V23.59H62.17V31H63.535V26.845ZM74.4607 27.925C75.4357 28.03 75.7807 28.36 75.7807 29.005C75.7807 29.59 75.2857 29.995 74.2207 29.995C72.7057 29.995 72.2257 29.2 72.1057 29.005H70.7107C70.8307 29.68 71.7157 31.21 74.2207 31.21C76.1257 31.21 77.1457 30.235 77.1457 28.945C77.1457 27.61 76.3657 26.845 74.6107 26.62L73.5757 26.5C72.6907 26.395 72.2557 26.08 72.2557 25.525C72.2557 24.985 72.7507 24.565 73.7707 24.565C75.0307 24.565 75.5557 25.225 75.6757 25.375H77.0257C76.8307 24.775 76.2007 23.38 73.7707 23.38C72.0907 23.38 70.9207 24.265 70.9207 25.585C70.9207 26.95 71.9407 27.64 73.3957 27.805L74.4607 27.925ZM84.3934 29.74H83.1484C82.0234 29.74 81.7084 29.32 81.7084 28.3V24.82H84.3934V23.59H81.7084V20.35H80.3434V23.59H78.4084V24.82H80.3434V28.585C80.3434 30.19 81.1684 31 82.8034 31H84.3934V29.74ZM91.4204 31H92.7854V23.59H91.4204V24.82C91.2104 24.445 90.6704 23.425 89.2154 23.425C87.4454 23.425 86.0804 24.865 86.0804 27.31C86.0804 29.755 87.4454 31.18 89.2154 31.18C90.6554 31.18 91.2254 30.22 91.4204 29.785V31ZM91.4504 27.31C91.4504 28.795 90.7304 29.935 89.4704 29.935C88.1804 29.935 87.4904 28.795 87.4904 27.31C87.4904 25.825 88.1804 24.685 89.4704 24.685C90.7304 24.685 91.4504 25.825 91.4504 27.31ZM100.519 30.835C100.519 32.335 99.8442 33.145 98.4492 33.145C97.1142 33.145 96.6792 32.425 96.6042 32.305H95.1642C95.2392 32.83 96.0042 34.39 98.4492 34.39C100.789 34.39 101.884 32.95 101.884 30.835V23.59H100.519V24.82C100.309 24.445 99.7092 23.41 98.2842 23.41C96.5442 23.41 95.0892 24.85 95.0892 27.31C95.0892 29.755 96.5442 31.195 98.2842 31.195C99.6942 31.195 100.369 30.13 100.519 29.83V30.835ZM100.549 27.31C100.549 28.795 99.7542 29.935 98.5392 29.935C97.2942 29.935 96.4992 28.795 96.4992 27.31C96.4992 25.81 97.2942 24.67 98.5392 24.67C99.7542 24.67 100.549 25.81 100.549 27.31ZM106.016 26.815C106.016 25.51 106.691 24.895 108.416 24.895H109.961V23.53H108.536C106.871 23.53 106.211 24.37 106.016 24.925V23.59H104.651V31H106.016V26.815ZM116.645 31H118.01V23.59H116.645V24.82C116.435 24.445 115.895 23.425 114.44 23.425C112.67 23.425 111.305 24.865 111.305 27.31C111.305 29.755 112.67 31.18 114.44 31.18C115.88 31.18 116.45 30.22 116.645 29.785V31ZM116.675 27.31C116.675 28.795 115.955 29.935 114.695 29.935C113.405 29.935 112.715 28.795 112.715 27.31C112.715 25.825 113.405 24.685 114.695 24.685C115.955 24.685 116.675 25.825 116.675 27.31ZM122.129 26.74C122.129 25.54 122.744 24.685 123.929 24.685C125.114 24.685 125.729 25.495 125.729 26.74V31H127.109V26.74C127.109 25.54 127.739 24.685 128.924 24.685C130.124 24.685 130.709 25.495 130.709 26.74V31H132.089V26.485C132.089 24.73 131.024 23.425 129.194 23.425C127.769 23.425 127.079 24.37 126.809 25C126.374 24.04 125.504 23.425 124.259 23.425C123.029 23.425 122.369 24.205 122.129 24.745V23.59H120.764V31H122.129V26.74Z" fill="white"/>
</svg>
